<svg id="logo" data-name="logo" xmlns="http://www.w3.org/2000/svg" viewBox="0 0 274.49 410.44">
<defs><style>.cls-1{fill:none;}.cls-2{fill:#fff;}</style></defs>
<title>logo</title><path class="cls-1" d="M274.49,410.44H0V0H274.49Zm-151.3-205V340.27a12.6,12.6,0,0,0,12.38,12.82,12.37,12.37,0,0,0,4.22-.65c5.54-1.82,8.72-6.65,8.72-13.27V70.39A12.57,12.57,0,0,0,144.13,61a12.1,12.1,0,0,0-13.51-2c-4.91,2.19-7.42,6.19-7.42,11.64q0,67.46,0,134.85Zm38.2,0v83.09c0,7.5,5.44,13.12,12.66,13.12s12.68-5.61,12.68-13.12V122.35a15,15,0,0,0-.69-4.51,12.64,12.64,0,0,0-24.62,4.08q0,41.74,0,83.52Zm-76.47-.12v57.22a15.7,15.7,0,0,0,.48,4.32c1.79,6.24,7.62,9.84,14.22,8.92,6.13-.86,10.53-6.28,10.53-13.1V148.24a15.53,15.53,0,0,0-.41-3.9c-1.64-6.31-7.56-10.12-14.23-9.24a12.38,12.38,0,0,0-10.59,12.34q0,29,0,57.88Zm178.3.12V165.76c0-6.06.07-12.13,0-18.19a12.57,12.57,0,0,0-16.35-12.07c-5.55,1.64-8.89,6.44-8.89,12.84v116a12,12,0,0,0,6.64,10.16c8.63,4.61,18.55-1.57,18.57-11.59.08-19.14.05-38.28.05-57.43Zm-191.3.1v-32a12.56,12.56,0,0,0-12.61-12.93,12.71,12.71,0,0,0-12.7,13.08v63.52a14.87,14.87,0,0,0,.63,4.3,12.59,12.59,0,0,0,13.39,8.67c6.5-.88,11.19-5.84,11.25-12.23.12-10.8.05-21.61.06-32.41Zm153,0V174a15.64,15.64,0,0,0-.29-3.48,12.66,12.66,0,0,0-25,3v63.53c0,7.49,5.44,13.19,12.56,13.23,7.32,0,12.75-5.56,12.76-13.21q0-15.78,0-31.56ZM8.33,205.37v6.35a12.66,12.66,0,0,0,25.31.64q.24-6.88,0-13.78a12.66,12.66,0,0,0-25.31.66c0,2,.05,4.06.05,6.1Z" transform="translate(0 0)"/>
<path class="cls-2" d="M123.21,205.44V70.61c0-5.45,2.51-9.45,7.42-11.64a12.1,12.1,0,0,1,13.51,2,12.57,12.57,0,0,1,4.38,9.44V339.17c0,6.62-3.18,11.45-8.72,13.27a12.6,12.6,0,0,1-16-7.95,12.37,12.37,0,0,1-.65-4.22Q123.19,272.86,123.21,205.44Z" transform="translate(0 0)"/>
<path class="cls-2" d="M161.41,205.44V121.91A12.64,12.64,0,0,1,186,117.84a15,15,0,0,1,.69,4.51q.06,83.09,0,166.18c0,7.51-5.47,13.12-12.68,13.12s-12.66-5.62-12.66-13.12Q161.41,247,161.41,205.44Z" transform="translate(0 0)"/>
<path class="cls-2" d="M84.94,205.32V147.44A12.38,12.38,0,0,1,95.53,135.1c6.67-.88,12.59,2.93,14.23,9.24a15.53,15.53,0,0,1,.41,3.9V262.68c0,6.82-4.4,12.24-10.53,13.1-6.6.92-12.43-2.68-14.22-8.92a15.7,15.7,0,0,1-.48-4.32Q84.93,233.92,84.94,205.32Z" transform="translate(0 0)"/>
<path class="cls-2" d="M263.24,205.44v57.43c0,10-9.94,16.2-18.57,11.59A12,12,0,0,1,238,264.3c-.08-1,0-2,0-3.06V148.34c0-6.4,3.34-11.2,8.89-12.84a12.57,12.57,0,0,1,16.35,12.07c.09,6.06,0,12.13,0,18.19Z" transform="translate(0 0)"/>
<path class="cls-2" d="M71.93,205.54c0,10.8.07,21.61,0,32.42-.06,6.39-4.75,11.35-11.25,12.23a12.59,12.59,0,0,1-13.39-8.67,14.87,14.87,0,0,1-.63-4.3q-.06-31.75,0-63.52c0-7.42,5.53-13.09,12.7-13.08S71.94,166.2,72,173.55C72,184.22,71.94,194.92,71.93,205.54Z" transform="translate(0 0)"/>
<path class="cls-2" d="M225,205.51v31.54c0,7.65-5.44,13.25-12.76,13.21-7.12,0-12.55-5.74-12.56-13.23V173.5a12.66,12.66,0,0,1,25-3,15.64,15.64,0,0,1,.29,3.48Q225,189.75,225,205.51Z" transform="translate(0 0)"/>
<path class="cls-2" d="M8.38,205.34v-6.13a12.66,12.66,0,0,1,25.31-.66q.24,6.88,0,13.78a12.66,12.66,0,0,1-25.31-.64C8.37,209.57,8.38,207.46,8.38,205.34Z" transform="translate(0 0)"/>
</svg>

